<svg width="876" height="210" viewBox="0 0 876 210" fill="none" xmlns="http://www.w3.org/2000/svg">
<g clip-path="url(#clip0_1622_24)">
<mask id="mask0_1622_24" style="mask-type:luminance" maskUnits="userSpaceOnUse" x="0" y="0" width="210" height="210">
<path d="M209.96 0H0V209.96H209.96V0Z" fill="white"/>
</mask>
<g mask="url(#mask0_1622_24)">
<path d="M210.05 105C210.05 187 186.97 210.07 104.98 210.07C22.99 210.07 0 187 0 105C0 23 23 0 105 0C187 0 210.05 23 210.05 105Z" fill="#6248FF"/>
<path fill-rule="evenodd" clip-rule="evenodd" d="M87.9297 68.25H114.64C128.211 68.25 141.226 73.6411 150.822 83.2373C160.419 92.8336 165.81 105.849 165.81 119.42C165.81 132.991 160.419 146.006 150.822 155.603C141.226 165.199 128.211 170.59 114.64 170.59H87.9297C85.3208 170.587 82.8195 169.55 80.9747 167.705C79.1299 165.86 78.0923 163.359 78.0897 160.75V151.19C78.0923 148.581 79.1299 146.08 80.9747 144.235C82.8195 142.39 85.3208 141.353 87.9297 141.35H113.18C118.609 141.35 123.815 139.193 127.654 135.354C131.493 131.516 133.65 126.309 133.65 120.88C133.65 115.451 131.493 110.244 127.654 106.406C123.815 102.567 118.609 100.41 113.18 100.41H87.9297C85.32 100.41 82.8171 99.3733 80.9718 97.5279C79.1264 95.6826 78.0897 93.1797 78.0897 90.57V78.09C78.0923 75.4811 79.1299 72.9798 80.9747 71.135C82.8195 69.2902 85.3208 68.2526 87.9297 68.25ZM55.7697 100.41C54.4766 100.41 53.1963 100.665 52.0018 101.16C50.8073 101.655 49.7221 102.381 48.8082 103.296C47.8944 104.21 47.1698 105.296 46.6758 106.491C46.1819 107.686 45.9284 108.967 45.9297 110.26V131.51C45.9297 132.802 46.1842 134.082 46.6787 135.276C47.1732 136.469 47.898 137.554 48.8118 138.468C49.7255 139.382 50.8102 140.106 52.0041 140.601C53.1979 141.095 54.4775 141.35 55.7697 141.35H68.2497C70.8594 141.35 73.3623 140.313 75.2076 138.468C77.053 136.623 78.0897 134.12 78.0897 131.51V110.26C78.091 108.967 77.8375 107.686 77.3435 106.491C76.8496 105.296 76.125 104.21 75.2112 103.296C74.2973 102.381 73.2121 101.655 72.0176 101.16C70.8231 100.665 69.5427 100.41 68.2497 100.41H55.7697Z" fill="white"/>
<path d="M78.0897 37.3198C78.0897 36.9936 77.9601 36.6808 77.7295 36.4501C77.4988 36.2194 77.1859 36.0898 76.8597 36.0898C72.7993 36.0885 68.7783 36.887 65.0264 38.4397C61.2745 39.9923 57.8652 42.2688 54.9931 45.139C52.1209 48.0093 49.8423 51.4172 48.2872 55.168C46.7321 58.9189 45.931 62.9394 45.9297 66.9998C45.9284 67.1631 45.9596 67.3249 46.0214 67.4759C46.0832 67.627 46.1745 67.7642 46.2899 67.8796C46.4054 67.995 46.5426 68.0863 46.6936 68.1482C46.8447 68.21 47.0065 68.2412 47.1697 68.2398H68.2497C70.8595 68.2398 73.3623 67.2031 75.2077 65.3578C77.053 63.5124 78.0897 61.0096 78.0897 58.3998V37.3198Z" fill="white"/>
</g>
<path d="M276.398 64.1689V153H260.843V64.1689H276.398ZM296.084 115.207H271.658V102.083H295.233C299.527 102.083 302.808 101.03 305.076 98.9236C307.345 96.7362 308.479 93.6577 308.479 89.6881C308.479 85.8805 307.304 82.964 304.955 80.9386C302.605 78.9133 299.203 77.9006 294.747 77.9006H271.172V64.1689H296.084C304.914 64.1689 311.841 66.3157 316.864 70.6094C321.887 74.9031 324.398 80.7766 324.398 88.2298C324.398 93.5767 323.102 98.073 320.509 101.719C317.917 105.283 314.069 107.876 308.965 109.496V107.795C314.474 109.091 318.646 111.521 321.482 115.086C324.317 118.65 325.735 123.268 325.735 128.939C325.735 133.962 324.601 138.296 322.332 141.942C320.064 145.506 316.742 148.261 312.368 150.205C308.074 152.068 302.889 153 296.813 153H271.172V139.268H296.084C300.54 139.268 303.942 138.215 306.292 136.109C308.641 134.002 309.816 130.964 309.816 126.995C309.816 123.268 308.6 120.392 306.17 118.367C303.821 116.26 300.459 115.207 296.084 115.207ZM331.855 122.863C331.855 116.625 333.233 111.157 335.987 106.458C338.742 101.678 342.549 97.9514 347.41 95.278C352.271 92.6046 357.78 91.2678 363.937 91.2678C370.175 91.2678 375.684 92.6046 380.463 95.278C385.324 97.9514 389.132 101.678 391.886 106.458C394.641 111.157 396.018 116.625 396.018 122.863C396.018 129.101 394.641 134.61 391.886 139.39C389.132 144.089 385.324 147.775 380.463 150.448C375.684 153.122 370.175 154.458 363.937 154.458C357.78 154.458 352.271 153.122 347.41 150.448C342.549 147.775 338.742 144.089 335.987 139.39C333.233 134.61 331.855 129.101 331.855 122.863ZM346.681 122.863C346.681 126.509 347.41 129.709 348.868 132.463C350.407 135.218 352.433 137.364 354.944 138.904C357.537 140.443 360.534 141.213 363.937 141.213C367.339 141.213 370.337 140.443 372.929 138.904C375.522 137.364 377.547 135.218 379.005 132.463C380.463 129.709 381.193 126.509 381.193 122.863C381.193 119.136 380.463 115.936 379.005 113.263C377.547 110.509 375.522 108.362 372.929 106.822C370.337 105.283 367.339 104.514 363.937 104.514C360.534 104.514 357.537 105.283 354.944 106.822C352.433 108.362 350.407 110.509 348.868 113.263C347.41 115.936 346.681 119.136 346.681 122.863ZM401.815 122.863C401.815 116.625 403.192 111.157 405.947 106.458C408.701 101.678 412.509 97.9514 417.369 95.278C422.23 92.6046 427.739 91.2678 433.896 91.2678C440.134 91.2678 445.643 92.6046 450.423 95.278C455.284 97.9514 459.091 101.678 461.846 106.458C464.6 111.157 465.977 116.625 465.977 122.863C465.977 129.101 464.6 134.61 461.846 139.39C459.091 144.089 455.284 147.775 450.423 150.448C445.643 153.122 440.134 154.458 433.896 154.458C427.739 154.458 422.23 153.122 417.369 150.448C412.509 147.775 408.701 144.089 405.947 139.39C403.192 134.61 401.815 129.101 401.815 122.863ZM416.64 122.863C416.64 126.509 417.369 129.709 418.828 132.463C420.367 135.218 422.392 137.364 424.904 138.904C427.496 140.443 430.494 141.213 433.896 141.213C437.299 141.213 440.296 140.443 442.889 138.904C445.481 137.364 447.506 135.218 448.965 132.463C450.423 129.709 451.152 126.509 451.152 122.863C451.152 119.136 450.423 115.936 448.965 113.263C447.506 110.509 445.481 108.362 442.889 106.822C440.296 105.283 437.299 104.514 433.896 104.514C430.494 104.514 427.496 105.283 424.904 106.822C422.392 108.362 420.367 110.509 418.828 113.263C417.369 115.936 416.64 119.136 416.64 122.863ZM470.681 134.772H484.777C484.858 137.364 485.83 139.43 487.693 140.97C489.557 142.509 492.149 143.278 495.471 143.278C499.035 143.278 501.709 142.63 503.491 141.334C505.354 140.038 506.286 138.296 506.286 136.109C506.286 134.65 505.8 133.354 504.828 132.22C503.856 131.086 502.033 130.235 499.359 129.668L488.544 127.116C483.116 125.901 479.065 123.957 476.392 121.283C473.8 118.529 472.503 114.762 472.503 109.982C472.503 106.093 473.516 102.731 475.541 99.8958C477.648 97.0603 480.483 94.9134 484.048 93.4552C487.612 91.9159 491.704 91.1463 496.321 91.1463C500.777 91.1463 504.706 91.9565 508.109 93.5767C511.511 95.197 514.144 97.4654 516.008 100.382C517.952 103.298 518.965 106.701 519.046 110.59H504.949C504.949 107.997 504.139 105.972 502.519 104.514C500.899 102.974 498.63 102.205 495.714 102.205C492.797 102.205 490.529 102.853 488.909 104.149C487.288 105.445 486.478 107.187 486.478 109.374C486.478 112.696 489.071 114.964 494.255 116.179L505.071 118.731C510.094 119.866 513.861 121.688 516.372 124.2C518.965 126.711 520.261 130.276 520.261 134.894C520.261 138.944 519.208 142.468 517.101 145.466C514.995 148.382 512.038 150.651 508.23 152.271C504.423 153.81 500.048 154.58 495.106 154.58C487.653 154.58 481.698 152.757 477.243 149.111C472.868 145.466 470.681 140.686 470.681 134.772ZM523.164 92.9691H561.078V105.364H523.164V92.9691ZM549.534 153H534.708V74.255H549.534V153ZM582.811 153H567.986V92.9691H581.596L583.419 103.663L581.718 102.205C582.933 99.2882 585.161 96.7362 588.401 94.5489C591.642 92.2805 595.692 91.1463 600.553 91.1463C605.819 91.1463 610.113 92.5235 613.434 95.278C616.837 98.0325 619.186 101.678 620.482 106.215H618.052C618.943 101.678 621.212 98.0325 624.857 95.278C628.584 92.5235 633.08 91.1463 638.346 91.1463C645.637 91.1463 651.227 93.2122 655.116 97.3438C659.004 101.395 660.949 106.863 660.949 113.749V153H646.245V117.638C646.245 113.344 645.151 110.103 642.964 107.916C640.857 105.648 638.022 104.514 634.457 104.514C632.189 104.514 630.083 105.04 628.138 106.093C626.275 107.146 624.776 108.726 623.642 110.833C622.508 112.939 621.941 115.653 621.941 118.974V153H607.115V117.516C607.115 113.303 606.062 110.103 603.956 107.916C601.849 105.729 599.054 104.635 595.571 104.635C593.221 104.635 591.075 105.162 589.13 106.215C587.186 107.187 585.647 108.767 584.513 110.954C583.378 113.06 582.811 115.734 582.811 118.974V153ZM690.936 154.58C684.617 154.58 679.594 152.878 675.867 149.476C672.222 145.992 670.399 141.456 670.399 135.866C670.399 130.357 672.303 125.982 676.11 122.742C679.999 119.42 685.508 117.476 692.637 116.909L710.622 115.45V114.114C710.622 111.359 710.095 109.172 709.042 107.552C708.07 105.85 706.652 104.635 704.789 103.906C702.926 103.096 700.738 102.691 698.227 102.691C693.852 102.691 690.49 103.582 688.141 105.364C685.791 107.065 684.617 109.496 684.617 112.655H671.978C671.978 108.281 673.072 104.514 675.26 101.354C677.528 98.1135 680.687 95.6021 684.738 93.8198C688.87 92.0375 693.609 91.1463 698.956 91.1463C704.384 91.1463 709.042 92.1185 712.931 94.0628C716.819 95.9261 719.817 98.7616 721.923 102.569C724.03 106.296 725.083 110.954 725.083 116.544V153H712.08L710.986 144.129C709.69 147.208 707.179 149.719 703.452 151.663C699.807 153.608 695.634 154.58 690.936 154.58ZM695.675 143.4C700.293 143.4 703.938 142.104 706.612 139.511C709.366 136.919 710.743 133.314 710.743 128.696V125.536L698.227 126.509C693.609 126.914 690.328 127.886 688.384 129.425C686.439 130.883 685.467 132.828 685.467 135.258C685.467 137.932 686.358 139.957 688.141 141.334C689.923 142.711 692.434 143.4 695.675 143.4ZM730.432 92.9691H768.346V105.364H730.432V92.9691ZM756.801 153H741.976V74.255H756.801V153ZM801.516 154.58C795.602 154.58 790.336 153.243 785.718 150.57C781.182 147.815 777.617 144.089 775.025 139.39C772.432 134.61 771.136 129.142 771.136 122.985C771.136 116.747 772.392 111.238 774.903 106.458C777.414 101.678 780.939 97.9514 785.475 95.278C790.012 92.5235 795.197 91.1463 801.03 91.1463C807.106 91.1463 812.331 92.4425 816.706 95.035C821.081 97.5464 824.443 101.07 826.792 105.607C829.223 110.144 830.438 115.572 830.438 121.891V126.387L778.913 126.509L779.156 117.03H815.734C815.734 112.898 814.397 109.577 811.724 107.065C809.131 104.554 805.607 103.298 801.151 103.298C797.668 103.298 794.711 104.027 792.28 105.486C789.931 106.944 788.149 109.131 786.934 112.048C785.718 114.964 785.111 118.529 785.111 122.742C785.111 129.223 786.488 134.124 789.242 137.445C792.078 140.767 796.25 142.428 801.759 142.428C805.81 142.428 809.131 141.658 811.724 140.119C814.397 138.58 816.139 136.392 816.949 133.557H830.681C829.385 140.119 826.144 145.263 820.959 148.99C815.855 152.716 809.374 154.58 801.516 154.58Z" fill="#131316"/>
</g>
<defs>
<clipPath id="clip0_1622_24">
<rect width="876" height="210" fill="white"/>
</clipPath>
</defs>
</svg>
